<svg xmlns="http://www.w3.org/2000/svg" xmlns:xlink="http://www.w3.org/1999/xlink" width="163" height="50" viewBox="0 0 163 50"><defs><style>.a{fill:none;}.b{clip-path:url(#a);}.c{fill:red;}</style><clipPath id="a"><rect class="a" width="163" height="50"/></clipPath></defs><g class="b"><g transform="translate(0 9.086)"><g transform="translate(0)"><path class="c" d="M-4628.811-1844.836a2.825,2.825,0,0,0,2.775-2.8,2.81,2.81,0,0,0-2.775-2.771,2.811,2.811,0,0,0-2.775,2.771A2.826,2.826,0,0,0-4628.811-1844.836Z" transform="translate(4632.932 1851.848)"/><path class="c" d="M-4615.375-1844.836a2.827,2.827,0,0,0,2.776-2.8,2.846,2.846,0,0,0-2.776-2.771,2.811,2.811,0,0,0-2.775,2.771A2.827,2.827,0,0,0-4615.375-1844.836Z" transform="translate(4626.084 1851.848)"/><path class="c" d="M-4562.531-1843.756a2.486,2.486,0,0,0-2.533,2.551v6.343a2.235,2.235,0,0,1-2.407,2.343,2.235,2.235,0,0,1-2.407-2.343v-2.974a2.486,2.486,0,0,0-2.533-2.552,2.487,2.487,0,0,0-2.532,2.552v2.974a2.235,2.235,0,0,1-2.406,2.343,2.235,2.235,0,0,1-2.407-2.343v-2.974a2.487,2.487,0,0,0-2.533-2.552,2.487,2.487,0,0,0-2.532,2.552v2.879a2.407,2.407,0,0,1-2.3,2.421,2.354,2.354,0,0,1-2.483-2.526,9.275,9.275,0,0,0-6.742-9.188,12.147,12.147,0,0,0-11.1,2.331v-8.879a2.486,2.486,0,0,0-2.533-2.551,2.486,2.486,0,0,0-2.532,2.551v18.263h-2.237a2.373,2.373,0,0,1-2.391-2.35c.016-5.594-3.347-9.548-8.216-9.752a8.648,8.648,0,0,0-8.975,8.329,8.207,8.207,0,0,0,3.193,6.884,8.242,8.242,0,0,0,7.213,1.649,2.468,2.468,0,0,0,1.851-1.762,2.6,2.6,0,0,0-.713-2.5,2.5,2.5,0,0,0-2.467-.588,2.942,2.942,0,0,1-2.721-.71,3.3,3.3,0,0,1-1.294-2.745,3.585,3.585,0,0,1,3.747-3.506c2.988.153,3.316,3.291,3.316,4.659a7.615,7.615,0,0,0,6.017,7.445H-4597a7.649,7.649,0,0,0,5.063-1.68,7.542,7.542,0,0,0,2.424,1.309,6.706,6.706,0,0,0,1.38.278l.916.094h0l1.093-.11a4.99,4.99,0,0,0,.685-.11,7.6,7.6,0,0,0,3.11-1.582,7.776,7.776,0,0,0,4.815,1.728,7.906,7.906,0,0,0,5.09-1.653,8.038,8.038,0,0,0,7.646,1.274,7.01,7.01,0,0,0,4.772-6.933v-6.343A2.486,2.486,0,0,0-4562.531-1843.756ZM-4597-1832.534h-10.209c.913-5.006,4.512-7.2,7.73-7.108,2.2.067,4.775,1.322,4.81,4.613C-4594.69-1832.911-4595.3-1832.534-4597-1832.534Z" transform="translate(4634.332 1853.348)"/><path class="c" d="M-4454.589-1833.044a2.486,2.486,0,0,0-2.533,2.551v4.644a2.337,2.337,0,0,1-2.391,2.388h-.962v-2.388c0-5.724-3.541-9.722-8.612-9.722a8.69,8.69,0,0,0-8.581,8.568,8.7,8.7,0,0,0,8.581,8.6h3.142a2.781,2.781,0,0,1-1.04,1.386,3.172,3.172,0,0,1-2.626.088,2.544,2.544,0,0,0-2.535.532,2.613,2.613,0,0,0-.792,2.478,2.46,2.46,0,0,0,1.779,1.8,9.414,9.414,0,0,0,2.8.442,7.45,7.45,0,0,0,4.179-1.23,8.4,8.4,0,0,0,3.466-5.495h2.644a7.615,7.615,0,0,0,6.017-7.445v-4.644A2.486,2.486,0,0,0-4454.589-1833.044Zm-10.95,9.584h-3.547A3.533,3.533,0,0,1-4472.6-1827a3.561,3.561,0,0,1,3.516-3.511c3.2,0,3.547,3.262,3.547,4.664Z" transform="translate(4554.48 1844.274)"/><path class="c" d="M-4433.917-1800.047a2.81,2.81,0,0,0-2.775,2.771,2.826,2.826,0,0,0,2.775,2.8,2.826,2.826,0,0,0,2.775-2.8A2.81,2.81,0,0,0-4433.917-1800.047Z" transform="translate(4533.595 1826.143)"/></g></g><path class="c" d="M-4355.518-1858.909l-21.722-11.731-.052-.02a3.292,3.292,0,0,0-3.292-.024l-21.873,11.815a2.972,2.972,0,0,0-1.572,2.606v20.289a2.985,2.985,0,0,0,1.575,2.616l21.947,11.854a3.3,3.3,0,0,0,1.552.392,3.3,3.3,0,0,0,1.55-.392l21.889-11.825a2.974,2.974,0,0,0,1.569-2.606V-1856.3A2.973,2.973,0,0,0-4355.518-1858.909Zm-2.933,6.314v12.957l-11.993-6.481Zm-24.364,8.988,2.4,1.3a3.093,3.093,0,0,0,2.923,0l2.4-1.3,14.65,7.916-18.508,10-18.508-10Zm-14.647-12.936,18.508-10,18.508,10-18.508,10Zm9.995,10.424-12.089,6.535v-13.064Z" transform="translate(4516.946 1871.114)"/></g></svg>